<?xml version="1.0" encoding="utf-8"?>
<!-- Generator: Adobe Illustrator 16.0.0, SVG Export Plug-In . SVG Version: 6.00 Build 0)  -->
<!DOCTYPE svg PUBLIC "-//W3C//DTD SVG 1.1//EN" "http://www.w3.org/Graphics/SVG/1.1/DTD/svg11.dtd">
<svg version="1.1" id="Layer_1" xmlns="http://www.w3.org/2000/svg" xmlns:xlink="http://www.w3.org/1999/xlink" x="0px" y="0px"
	 width="741.273px" height="170.311px" viewBox="0 0 741.273 170.311" enable-background="new 0 0 741.273 170.311"
	 xml:space="preserve">
<g>
	<g>
		<path fill="#4DABDE" d="M293.602,47.39c-5.877-3.855-12.676-5.811-20.208-5.811c-7.317,0-14.189,1.721-20.425,5.114
			c-3.703,2.015-7.228,4.657-10.539,7.896V43.944h-18.826v98.903h18.826v-37.203c0-11.771,0.534-19.901,1.579-24.129
			c1.629-6.315,4.917-11.47,10.049-15.759c5.057-4.227,10.61-6.281,16.976-6.281c5.415,0,9.801,1.296,13.036,3.85
			c3.269,2.583,5.441,6.427,6.657,11.82c0.554,2.241,1.214,7.593,1.214,20.362v47.34h18.826V92.044c0-13.102-1.336-22.587-4.084-29
			C303.885,56.518,299.484,51.251,293.602,47.39z"/>
		<path fill="#4DABDE" d="M403.652,54.862c-3.363-3.302-7.031-6.001-10.963-8.067c-6.588-3.461-14.027-5.216-22.112-5.216
			c-13.974,0-26.094,5.096-36.024,15.146c-9.919,10.04-14.948,22.292-14.948,36.417c0,14.398,4.981,26.802,14.807,36.866
			c9.848,10.089,21.902,15.204,35.828,15.204c7.828,0,15.156-1.656,21.779-4.923c4.121-2.032,8.012-4.704,11.633-7.983v10.541
			h18.658V43.944h-18.658V54.862z M394.91,69.648c6.395,6.524,9.504,14.444,9.504,24.212c0,6.334-1.426,12.089-4.236,17.104
			c-2.789,4.974-6.838,8.98-12.037,11.908c-5.236,2.949-10.846,4.444-16.676,4.444c-5.752,0-11.217-1.498-16.241-4.454
			c-5.031-2.957-9.1-7.16-12.095-12.492c-3.005-5.347-4.528-11.016-4.528-16.848c0-5.886,1.509-11.554,4.485-16.845
			c2.966-5.271,7.002-9.416,11.997-12.317c5.003-2.905,10.544-4.378,16.467-4.378C380.892,59.982,388.533,63.145,394.91,69.648z"/>
		<polygon fill="#4DABDE" points="465.687,9.818 446.861,9.818 446.861,43.944 430.726,43.944 430.726,61.165 446.861,61.165 
			446.861,142.848 465.687,142.848 465.687,61.165 484.439,61.165 484.439,43.944 465.687,43.944 		"/>
		<path fill="#4DABDE" d="M587.199,94.294c-0.121-13.296-3.789-24.589-10.896-33.557c-10.01-12.713-23.564-19.158-40.287-19.158
			c-16.279,0-29.467,6.307-39.193,18.739c-7.621,9.711-11.484,20.925-11.484,33.331c0,13.193,4.553,25.173,13.529,35.605
			c9.109,10.589,21.836,15.958,37.824,15.958c7.16,0,13.697-1.115,19.434-3.315c5.744-2.205,10.982-5.465,15.572-9.688
			c4.57-4.205,8.635-9.767,12.08-16.531l1.568-3.079l-15.953-8.382l-1.703,2.833c-3.402,5.66-6.551,9.766-9.359,12.202
			c-2.768,2.403-6.201,4.367-10.201,5.838c-4.02,1.477-8.209,2.226-12.451,2.226c-8.791,0-15.963-3-21.926-9.172
			c-5.271-5.453-8.246-12.127-9.043-20.319h82.521L587.199,94.294z M507.023,80.604c2.109-5.569,4.869-9.896,8.236-12.897
			c5.873-5.254,12.717-7.809,20.924-7.809c4.928,0,9.695,1.056,14.168,3.136c4.445,2.069,8.049,4.807,10.711,8.136
			c1.977,2.472,3.633,5.634,4.947,9.435H507.023z"/>
		<path fill="#4DABDE" d="M727.671,58.099c-9.957-10.962-22.672-16.52-37.793-16.52c-15.182,0-27.928,5.589-37.881,16.609
			c-9.023,9.968-13.598,21.898-13.598,35.461c0,13.694,4.828,25.822,14.35,36.046c9.59,10.297,22.08,15.518,37.129,15.518
			c14.992,0,27.455-5.221,37.045-15.518c9.521-10.226,14.35-22.353,14.35-36.046C741.273,80.031,736.699,68.072,727.671,58.099z
			 M689.835,60.151c8.875,0,16.334,3.22,22.801,9.842c6.488,6.646,9.643,14.467,9.643,23.909c0,6.006-1.477,11.683-4.385,16.872
			c-2.893,5.155-6.84,9.184-11.736,11.976c-4.922,2.806-10.412,4.229-16.322,4.229c-5.908,0-11.4-1.423-16.32-4.229
			c-4.898-2.791-8.846-6.819-11.736-11.975c-2.908-5.188-4.385-10.864-4.385-16.872c0-9.444,3.143-17.268,9.605-23.915
			C673.435,63.369,680.906,60.151,689.835,60.151z"/>
		<path fill="#4DABDE" d="M638.972,42.847c-2.43-0.836-4.801-1.268-7.084-1.268c-5.008,0-9.859,1.514-14.418,4.499
			c-2.043,1.338-4.043,2.995-5.986,4.959v-7.093h-19.08v98.903h19.08v-34.585c0-15.546,0.695-25.914,2.064-30.814
			c1.721-6.123,4.182-8.632,7.314-11.403c3.025-2.677,6.971-4.777,13.947-4.659l4.162,0.494V42.847z"/>
	</g>
	<path fill="#4DABDE" d="M162.621,75.018c0.533-1.689,1.63-4.107,3.802-5.803c2.318-1.809,4.886-2.461,6.875-2.66
		c1.46-0.146,16.167,0.635,23.878,1.06V26.626l-35.023-5.309v24.387c0,0,0.728,10.559-6.873,15.732
		c-5.853,3.984-20.956,2.902-20.956,2.902l-29.505-1.691v65.307l31.814-1.585V94.856h25.52V78.78
		C162.154,78.78,162.254,76.178,162.621,75.018z"/>
	<polygon fill="#4DABDE" points="136.634,126.369 136.634,170.311 197.177,161.789 197.177,94.856 162.154,94.856 162.154,125.369 	
		"/>
	<polygon fill="#4DABDE" points="95.039,98.209 0,101.209 0,0 95.039,14 	"/>
</g>
</svg>
